<svg xmlns="http://www.w3.org/2000/svg" viewBox="0 0 210 210" width="210mm" height="210mm"><g transform="matrix(0 1 -1 0 210 -0)"><defs id="defs2"/><sodipodi:namedview xmlns:sodipodi="http://sodipodi.sourceforge.net/DTD/sodipodi-0.dtd" id="base" pagecolor="#ffffff" bordercolor="#666666" borderopacity="1.0" xmlns:ns1="http://www.inkscape.org/namespaces/inkscape" ns1:pageopacity="0.0" ns1:pageshadow="2" ns1:zoom="0.98994949" ns1:cx="395.73636" ns1:cy="365.02019" ns1:document-units="mm" ns1:current-layer="layer1" showgrid="false" ns1:window-width="1848" ns1:window-height="1136" ns1:window-x="72" ns1:window-y="27" ns1:window-maximized="1"/><metadata id="metadata5">
    <rdf:RDF xmlns:rdf="http://www.w3.org/1999/02/22-rdf-syntax-ns#">
      <cc:Work xmlns:cc="http://creativecommons.org/ns#" rdf:about="">
        <dc:format xmlns:dc="http://purl.org/dc/elements/1.1/">image/svg+xml</dc:format>
        <dc:type xmlns:dc="http://purl.org/dc/elements/1.1/" rdf:resource="http://purl.org/dc/dcmitype/StillImage"/>
        <dc:title xmlns:dc="http://purl.org/dc/elements/1.1/"/>
      </cc:Work>
    </rdf:RDF>
  </metadata><g xmlns:ns1="http://www.inkscape.org/namespaces/inkscape" ns1:label="Layer 1" ns1:groupmode="layer" id="layer1" transform="translate(0,-87)">
    <path style="fill:none;stroke:#000000;stroke-width:0.26458332px;stroke-linecap:butt;stroke-linejoin:miter;stroke-opacity:1" d="m 64.917409,273.1875 1.228423,-1.70089 26.741816,-15.68601 -0.283482,-42.33333 -72.665922,26.17485 -1.700893,0.0945 -1.511905,-1.13393 -0.94494,-1.13393 -0.283482,-0.75595 v -13.04018 l 0.661458,-0.94494 1.795387,-1.03943 L 92.698659,170 l 0.188989,-49.98735 0.661458,-5.38616 0.755952,-5.85863 1.795388,-6.61458 2.267855,-4.724704 4.252229,-3.96875 2.83483,-0.661459 2.64583,0.188989 3.1183,1.606398 1.98438,1.984375 1.98437,3.02381 c 0,0 1.32292,3.118301 1.32292,3.779761 0,0.66146 1.32292,5.19717 1.32292,5.19717 l 0.75595,5.38616 0.75595,4.72471 0.18899,2.36235 0.18899,48.75893 75.87872,52.53869 0.66146,0.94494 0.18898,0.85044 -0.0945,13.32366 -0.56697,0.75596 -1.41741,1.03943 -1.13393,0.56696 -0.94493,-0.18898 -72.66593,-25.98587 -0.18899,42.14435 26.17485,15.40253 1.32292,0.75595 0.75596,1.6064 0.18898,12.94568 -0.85044,1.13393 -1.03944,1.22842 -1.22842,0.56697 -1.51191,-0.28348 -37.23065,-10.77233 -37.230654,10.86682 H 66.99628 l -1.228423,-0.94494 -1.228424,-1.41741 z" id="path1984" ns1:connector-curvature="0"/>
    <path style="fill:#83c9f2;fill-opacity:1;stroke-width:1.01015258" d="m 543.31194,763.32986 c -2.00433,-0.44195 -34.44541,-9.72041 -72.09127,-20.61882 -37.64587,-10.89843 -69.18947,-19.8651 -70.09689,-19.92594 -0.90742,-0.0608 -33.06268,9.06278 -71.45613,20.27471 -38.39345,11.21194 -71.33247,20.38535 -73.19782,20.38535 -2.59134,0 -4.35392,-0.94408 -7.4704,-4.00132 l -4.07884,-4.00132 0.72099,-25.84493 c 0.69289,-24.83771 0.81101,-25.95996 3.03084,-28.79637 1.42967,-1.82679 21.50068,-14.22262 52.67281,-32.53067 l 50.36297,-29.57923 -0.14793,-78.36102 c -0.0813,-43.09856 -0.47099,-79.49529 -0.86587,-80.88161 l -0.71795,-2.52059 -14.64721,5.2939 c -132.85012,48.01562 -259.722443,93.45399 -262.281073,93.93398 -2.585427,0.48504 -4.018406,0.0337 -6.919921,-2.17936 -6.411585,-4.89035 -6.570649,-5.69269 -6.570649,-33.1431 v -24.72207 l 2.77792,-2.14798 c 1.527856,-1.18139 11.918549,-8.37541 23.090431,-15.98673 11.17188,-7.61132 75.562382,-52.02253 143.090002,-98.69158 l 122.7775,-84.85281 0.43079,-96.97465 0.43078,-96.97464 2.63163,-19.1929 c 3.13326,-22.851465 7.93461,-41.212919 13.85675,-52.991477 3.3984,-6.759089 5.85989,-9.996922 11.8948,-15.646369 8.15196,-7.631291 12.52602,-9.591305 21.48961,-9.629489 5.75168,-0.0245 17.33573,5.392296 21.84107,10.213064 11.42933,12.229547 16.6387,26.791835 22.71891,63.508586 2.82436,17.055615 3.1654,21.687555 3.9047,53.033005 0.44553,18.88986 0.85375,63.45635 0.90717,99.03666 l 0.0972,64.69146 143.45767,99.31042 c 78.90171,54.62073 144.13231,100.27362 144.95689,101.45086 1.2316,1.75835 1.49922,6.79875 1.49922,28.23658 v 26.09614 l -3.19688,2.91989 c -6.14647,5.61394 -7.4552,5.69055 -20.21009,1.18297 -6.29381,-2.22423 -68.68956,-24.53 -138.65721,-49.56839 -69.96765,-25.03839 -127.39497,-45.3433 -127.61624,-45.12201 -0.22128,0.22128 -0.6404,36.46464 -0.93136,80.54079 l -0.52903,80.13847 51.7699,30.30457 c 38.74248,22.6787 52.24119,31.06716 53.64274,33.33504 1.68889,2.73278 1.87322,5.4419 1.87662,27.58063 l 0.004,24.55017 -2.77792,3.55161 c -3.78946,4.84489 -6.95629,6.31239 -11.47294,5.31652 z" id="path1986" ns1:connector-curvature="0" transform="matrix(0.26458333,0,0,0.26458333,0,87)"/>
  </g></g></svg>