<svg xmlns="http://www.w3.org/2000/svg" viewBox="0 0 32 32"><g transform="matrix(0 1 -1 0 32 -0)"><path fill="#8b8891" d="M31.5 20.5h-2v-3.764a9.472 9.472 0 0 1 1-4.236 9.472 9.472 0 0 1 1 4.236Z"/><path fill="#2c2b2d" d="M31.5 21h-2a.5.5 0 0 1-.5-.5v-3.764a10.026 10.026 0 0 1 1.053-4.46.52.52 0 0 1 .894 0A10.026 10.026 0 0 1 32 16.736V20.5a.5.5 0 0 1-.5.5ZM30 20h1v-3.264a9.024 9.024 0 0 0-.5-2.95 9.024 9.024 0 0 0-.5 2.95Z"/><path fill="#8b8891" d="M24.5 16.5h-2v-3.764a9.472 9.472 0 0 1 1-4.236 9.472 9.472 0 0 1 1 4.236Z"/><path fill="#2c2b2d" d="M24.5 17h-2a.5.5 0 0 1-.5-.5v-3.764a10.026 10.026 0 0 1 1.053-4.46.52.52 0 0 1 .894 0A10.026 10.026 0 0 1 25 12.736V16.5a.5.5 0 0 1-.5.5ZM23 16h1v-3.264a9.024 9.024 0 0 0-.5-2.95 9.024 9.024 0 0 0-.5 2.95Z"/><path fill="#8b8891" d="M.5 20.5h2v-3.764a9.472 9.472 0 0 0-1-4.236 9.472 9.472 0 0 0-1 4.236Z"/><path fill="#2c2b2d" d="M2.5 21h-2a.5.5 0 0 1-.5-.5v-3.764a10.026 10.026 0 0 1 1.053-4.46.52.52 0 0 1 .894 0A10.026 10.026 0 0 1 3 16.736V20.5a.5.5 0 0 1-.5.5ZM1 20h1v-3.264a9.024 9.024 0 0 0-.5-2.95 9.024 9.024 0 0 0-.5 2.95Z"/><path fill="#8b8891" d="M7.5 16.5h2v-3.764a9.472 9.472 0 0 0-1-4.236 9.472 9.472 0 0 0-1 4.236Z"/><path fill="#2c2b2d" d="M9.5 17h-2a.5.5 0 0 1-.5-.5v-3.764a10.026 10.026 0 0 1 1.053-4.46.52.52 0 0 1 .894 0A10.026 10.026 0 0 1 10 12.736V16.5a.5.5 0 0 1-.5.5ZM8 16h1v-3.264a9.024 9.024 0 0 0-.5-2.95 9.024 9.024 0 0 0-.5 2.95Z"/><path fill="#3f6db4" d="M19.5 19.5v3.32l7 4.68v3l-6-1-2-1.4-1 2.4h-3l-1-2.4-2 1.4-6 1v-3l7-4.68V19.5l-12 2v-4l12-5.1a19.183 19.183 0 0 1 .8-6.36c.06-.19.12-.37.18-.55A19.37 19.37 0 0 1 16 .5a18.506 18.506 0 0 1 2.56 4.96c.07.2.14.4.2.61a18.78 18.78 0 0 1 .74 6.33l12 5.1v4Z"/><path fill="#8b8891" d="m18.56 5.46-.06.04a3.625 3.625 0 0 1-5 0l-.02-.01A19.37 19.37 0 0 1 16 .5a18.506 18.506 0 0 1 2.56 4.96Z"/><path fill="#2c2b2d" d="M26.5 31a.516.516 0 0 1-.082-.007l-6-1a.502.502 0 0 1-.205-.083l-1.49-1.044-.762 1.826A.5.5 0 0 1 17.5 31h-3a.5.5 0 0 1-.461-.308l-.762-1.826-1.49 1.044a.502.502 0 0 1-.205.083l-6 1A.5.5 0 0 1 5 30.5v-3a.5.5 0 0 1 .222-.416L12 22.553V20.09L.582 21.993a.504.504 0 0 1-.405-.112A.499.499 0 0 1 0 21.5v-4a.5.5 0 0 1 .304-.46l11.685-4.966a19.627 19.627 0 0 1 .832-6.18l.185-.563A19.86 19.86 0 0 1 15.59.212.5.5 0 0 1 15.996 0a.516.516 0 0 1 .408.206 18.897 18.897 0 0 1 2.63 5.094c.077.222.147.423.207.634a19.174 19.174 0 0 1 .774 6.142l11.68 4.964a.5.5 0 0 1 .305.46v4a.5.5 0 0 1-.582.493L20 20.09v2.463l6.778 4.531A.5.5 0 0 1 27 27.5v3a.5.5 0 0 1-.5.5Zm-11.666-1h2.333l.872-2.092a.5.5 0 0 1 .748-.218l1.907 1.335L26 29.91v-2.143l-6.778-4.532A.5.5 0 0 1 19 22.82V19.5a.499.499 0 0 1 .177-.381.504.504 0 0 1 .405-.112L31 20.91v-3.08l-11.696-4.97a.5.5 0 0 1-.303-.487 18.198 18.198 0 0 0-.72-6.162c-.056-.196-.12-.378-.184-.56a18.07 18.07 0 0 0-2.09-4.268 18.852 18.852 0 0 0-2.053 4.266l-.178.542A18.67 18.67 0 0 0 13 12.38a.5.5 0 0 1-.304.48L1 17.83v3.08l11.418-1.903A.5.5 0 0 1 13 19.5v3.32a.5.5 0 0 1-.222.415L6 27.767v2.143l5.306-.885 1.907-1.335a.5.5 0 0 1 .748.218Z"/><path fill="#2c2b2d" d="M16 32a.5.5 0 0 1-.5-.5v-11a.5.5 0 0 1 1 0v11a.5.5 0 0 1-.5.5zm0-25a4.177 4.177 0 0 1-2.845-1.138.5.5 0 1 1 .69-.724A3.17 3.17 0 0 0 16 6a3.218 3.218 0 0 0 2.155-.862.5.5 0 1 1 .69.724A4.181 4.181 0 0 1 16 7zm3.5 13a.5.5 0 0 1-.5-.5v-7.1a.5.5 0 0 1 1 0v7.1a.5.5 0 0 1-.5.5zm-7 0a.5.5 0 0 1-.5-.5v-7.1a.5.5 0 0 1 1 0v7.1a.5.5 0 0 1-.5.5z"/><path fill="#8b8891" d="M14.5 8.5h3v7h-3z"/><path fill="#2c2b2d" d="M17.5 16h-3a.5.5 0 0 1-.5-.5v-7a.5.5 0 0 1 .5-.5h3a.5.5 0 0 1 .5.5v7a.5.5 0 0 1-.5.5ZM15 15h2V9h-2Z"/></g></svg>