<svg xmlns="http://www.w3.org/2000/svg" viewBox="0 0 24 24"><g transform="matrix(0 1 -1 0 24 -0)"><path fill="#54bbe8" d="M14 6.22l9 4.72a1 1 0 0 1 .54.89v1.39l-10-1.43M10.36 11.81L.5 13.22V11.83A1 1 0 0 1 1 10.95L9.81 6.35M11.19 17.39L6.05 19.94a1 1 0 0 0-.55.89v2.38l6.12-2M12.81 17.39l5.14 2.55a1 1 0 0 1 .55.89v2.38l-6.17-2.06"/><path fill="#e0e0e2" d="M12.5,23.22h-1L9.75,5.72a6,6,0,0,1,1.36-4.44l.12-.14a1,1,0,0,1,1.54,0l.12.14a6,6,0,0,1,1.36,4.44Z"/><path fill="#54bbe8" d="M12.5,4.72h-1a.5.5,0,0,1,0-1h1a.5.5,0,0,1,0,1Z"/><path fill="#e0e0e2" d="M16.5 7.56V7.22a1 1 0 1 1 2 0V8.61zM20.5 9.65V9.22a1 1 0 0 1 2 0V10.7zM7.5 7.56V7.22a1 1 0 1 0-2 0V8.61zM3.5 9.65V9.22a1 1 0 0 0-2 0V10.7z"/></g></svg>