<svg xmlns="http://www.w3.org/2000/svg" viewBox="0 0 60 60" width="60px" height="60px"><g transform="matrix(0 1 -1 0 60 -0)"><title/><desc/><defs/><g fill="none" fill-rule="evenodd" id="Page-1" stroke="none" stroke-width="1"><g fill-rule="nonzero" id="038---Plane"><g id="Icons" transform="translate(0.000000, 1.000000)"><path d="M32.642,47 L42.672,56.26 C43.0080632,56.5633803 43.0983717,57.0546995 42.8921573,57.4577549 C42.6859429,57.8608103 42.2346583,58.0750353 41.792,57.98 L31.362,55.74 L28.64,55.74 L18.21,57.98 C17.7673417,58.0750353 17.3160571,57.8608103 17.1098427,57.4577549 C16.9036283,57.0546995 16.9939368,56.5633803 17.33,56.26 L27.36,47 L32.642,47 Z" fill="#F96A59" id="Shape"/><path d="M35,15 L58,29.37 C58.8057798,29.8764307 59.180045,30.8543268 58.918284,31.7693319 C58.6565231,32.684337 57.8217036,33.316343 56.87,33.32 C56.6876505,33.3213937 56.5059671,33.2978421 56.33,33.25 L34.03,27.52 L25.97,27.52 L3.67,33.25 C3.49403293,33.2978421 3.31234949,33.3213937 3.13,33.32 C2.17829642,33.316343 1.34347694,32.684337 1.08171599,31.7693319 C0.819955049,30.8543268 1.19422023,29.8764307 2,29.37 L25,15 L35,15 Z" fill="#F96A59" id="Shape"/><path d="M11,23.75 L11,22.5 C11,21.1192881 9.88071187,20 8.5,20 C7.11928813,20 6,21.1192881 6,22.5 L6,26.87 L11,23.75 Z" fill="#000000" id="Shape"/><path d="M20,18.12 L20,17.5 C20,16.1192881 18.8807119,15 17.5,15 C16.1192881,15 15,16.1192881 15,17.5 L15,21.25 L20,18.12 Z" fill="#000000" id="Shape"/><path d="M54,26.87 L54,22.5 C54,21.1192881 52.8807119,20 51.5,20 C50.1192881,20 49,21.1192881 49,22.5 L49,23.75 L54,26.87 Z" fill="#000000" id="Shape"/><path d="M45,21.25 L45,17.5 C45,16.1192881 43.8807119,15 42.5,15 C41.1192881,15 40,16.1192881 40,17.5 L40,18.12 L45,21.25 Z" fill="#000000" id="Shape"/><path d="M35.58,5.58 C35.58,5.71 35.58,5.84 35.57,5.98 L35.42,8.03 L35,8 L25,8 L24.58,8.03 L24.43,5.98 C24.285561,3.94428876 25.2635872,1.9920232 26.9805328,0.888809491 C28.6974785,-0.214404215 30.8796214,-0.292687369 32.671206,0.68465978 C34.4627906,1.66200693 35.5781954,3.53917183 35.58,5.58 Z" fill="#735EFF" id="Shape"/><path d="M35.42,8.03 L32.14,54.01 C32.0560831,55.1298542 31.1229939,55.9956379 30,55.9956379 C28.8770061,55.9956379 27.9439169,55.1298542 27.86,54.01 L24.58,8.03 L25,8 L35,8 L35.42,8.03 Z" fill="#FFACAD" id="Shape"/></g><g fill="#000000" id="Layer_10"><path d="M58.265,29.946 L54.5,27.594 L54.5,23.5 C54.5,21.8431458 53.1568542,20.5 51.5,20.5 C49.8431458,20.5 48.5,21.8431458 48.5,23.5 L48.5,23.845 L45.5,21.971 L45.5,18.5 C45.5017668,17.2853869 44.7709731,16.1895608 43.6489694,15.7243772 C42.5269657,15.2591935 41.2351802,15.5164566 40.377,16.376 C39.8814003,16.876146 39.5794674,17.536004 39.525,18.238 L35.452,15.693 L36.071,7.021 C36.2362166,4.74683019 35.116576,2.57103615 33.1700311,1.38355647 C31.2234863,0.196076796 28.7765137,0.196076796 26.8299689,1.38355647 C24.883424,2.57103615 23.7637834,4.74683019 23.929,7.021 L24.548,15.693 L20.475,18.238 C20.4207291,17.5362452 20.1187489,16.8766381 19.623,16.377 C18.7649483,15.5175863 17.473406,15.2602603 16.3514935,15.7251871 C15.229581,16.1901139 14.4986388,17.285569 14.5,18.5 L14.5,21.971 L11.5,23.845 L11.5,23.5 C11.5028848,22.7036166 11.1870948,21.9391672 10.623,21.377 C9.76494829,20.5175863 8.47340598,20.2602603 7.3514935,20.7251871 C6.22958103,21.1901139 5.49863881,22.285569 5.5,23.5 L5.5,27.594 L1.734,29.947 C0.739287262,30.5725142 0.277969748,31.7803483 0.602430923,32.9097049 C0.926892097,34.0390616 1.95896091,34.8178497 3.134,34.82 C3.35821988,34.8217536 3.58162532,34.7928186 3.798,34.734 L25.514,29.154 L26.841,47.8 L16.991,56.893 C16.5335826,57.3087378 16.3780226,57.9624951 16.5991725,58.5396963 C16.8203224,59.1168976 17.3728939,59.4993402 17.991,59.503 C18.0982037,59.5033626 18.2051408,59.4923002 18.31,59.47 L28.739,57.23 C28.7610136,57.222306 28.7824089,57.2129455 28.803,57.202 C29.5480419,57.6005809 30.4429581,57.6005809 31.188,57.202 C31.2090186,57.2127712 31.2307337,57.2221254 31.253,57.23 L41.683,59.47 C41.7874964,59.4925657 41.8940949,59.503963 42.001,59.504 C42.6200179,59.5023886 43.1744686,59.1206867 43.3969063,58.5430128 C43.6193439,57.9653388 43.4640769,57.3103548 43.006,56.894 L33.154,47.794 L34.49,29.154 L56.2,34.732 C56.419625,34.7918198 56.6463786,34.8214256 56.874,34.82 C58.0496817,34.8185558 59.0826196,34.0395553 59.4071964,32.9095644 C59.7317732,31.7795735 59.2697002,30.5711484 58.274,29.946 L58.265,29.946 Z M49.5,23.5 C49.4975662,22.9686188 49.7078642,22.4583581 50.084,22.083 C50.6561851,21.5093623 51.5179298,21.3376117 52.2663167,21.6480521 C53.0147035,21.9584924 53.5018556,22.6897824 53.5,23.5 L53.5000053,26.969 L49.5,24.469 L49.5,23.5 Z M40.5,18.5 C40.4975662,17.9686188 40.7078642,17.4583581 41.084,17.083 C41.6561851,16.5093623 42.5179298,16.3376117 43.2663167,16.6480521 C44.0147035,16.9584924 44.5018556,17.6897824 44.5,18.5 L44.5000053,21.346 L40.5,18.846 L40.5,18.5 Z M26.277,3.121 C27.7458365,1.53889068 30.053431,1.05644733 32.0330727,1.91759146 C34.0127144,2.7787356 35.2330169,4.79581419 35.077,6.949 L34.962,8.5 L25.038,8.5 L24.927,6.949 C24.8190663,5.53998437 25.3090559,4.15059164 26.277,3.121 Z M15.5,18.5 C15.5,17.3954305 16.3954305,16.5 17.5,16.5 C18.6045695,16.5 19.5,17.3954305 19.5,18.5 L19.5,18.847 L15.5,21.347 L15.5,18.5 Z M6.5,23.5 C6.5,22.3954305 7.3954305,21.5 8.5,21.5 C9.6045695,21.5 10.5,22.3954305 10.5,23.5 L10.5,24.47 L6.5,26.97 L6.5,23.5 Z M3.536,33.768 C3.40370571,33.8039405 3.26708183,33.8214391 3.13,33.82 C2.40134943,33.8163502 1.76260075,33.3320924 1.5623308,32.6314948 C1.36206084,31.9308973 1.64836425,31.1822078 2.265,30.794 L24.629,16.821 L25.437,28.141 L3.536,33.768 Z M18.106,58.491 C17.8832884,58.5397546 17.6557983,58.4316802 17.5528992,58.2282367 C17.4500001,58.0247933 17.4977523,57.7775049 17.669,57.627 L26.932,49.075 L27.358,55.041 C27.3950301,55.5307661 27.5682115,56.0004339 27.858,56.397 L18.106,58.491 Z M28.356,54.97 L25.109,9.5 L34.891,9.5 L31.644,54.97 C31.5837251,55.8335314 30.8656324,56.5032481 30,56.5032481 C29.1343676,56.5032481 28.4162749,55.8335314 28.356,54.97 Z M42.333,57.627 C42.5045305,57.7774712 42.5485899,58.0268642 42.439,58.227 C42.3436799,58.4326334 42.116122,58.542012 41.896,58.488 L32.144,56.4 C32.4336468,56.0033579 32.6068127,55.5337319 32.644,55.044 L33.07,49.076 L42.333,57.627 Z M56.87,33.82 C56.7295163,33.8211091 56.5895446,33.8029397 56.454,33.766 L34.563,28.141 L35.371,16.821 L57.734,30.793 C58.3499541,31.1815951 58.6358517,31.9298469 58.4359586,32.6301671 C58.2360654,33.3304872 57.598273,33.8150891 56.87,33.82 Z" id="Shape"/><path d="M11,37.5 C10.7238576,37.5 10.5,37.7238576 10.5,38 L10.5,43 C10.5,43.2761424 10.7238576,43.5 11,43.5 C11.2761424,43.5 11.5,43.2761424 11.5,43 L11.5,38 C11.5,37.7238576 11.2761424,37.5 11,37.5 Z" id="Shape"/><path d="M11,46.5 C10.7238576,46.5 10.5,46.7238576 10.5,47 L10.5,48 C10.5,48.2761424 10.7238576,48.5 11,48.5 C11.2761424,48.5 11.5,48.2761424 11.5,48 L11.5,47 C11.5,46.7238576 11.2761424,46.5 11,46.5 Z" id="Shape"/><path d="M16,40.5 C16.2761424,40.5 16.5,40.2761424 16.5,40 L16.5,35 C16.5,34.7238576 16.2761424,34.5 16,34.5 C15.7238576,34.5 15.5,34.7238576 15.5,35 L15.5,40 C15.5,40.2761424 15.7238576,40.5 16,40.5 Z" id="Shape"/><path d="M15.5,45 C15.5,45.2761424 15.7238576,45.5 16,45.5 C16.2761424,45.5 16.5,45.2761424 16.5,45 L16.5,44 C16.5,43.7238576 16.2761424,43.5 16,43.5 C15.7238576,43.5 15.5,43.7238576 15.5,44 L15.5,45 Z" id="Shape"/><path d="M43.5,45 C43.5,45.2761424 43.7238576,45.5 44,45.5 C44.2761424,45.5 44.5,45.2761424 44.5,45 L44.5,40 C44.5,39.7238576 44.2761424,39.5 44,39.5 C43.7238576,39.5 43.5,39.7238576 43.5,40 L43.5,45 Z" id="Shape"/><path d="M44,36.5 C44.2761424,36.5 44.5,36.2761424 44.5,36 L44.5,35 C44.5,34.7238576 44.2761424,34.5 44,34.5 C43.7238576,34.5 43.5,34.7238576 43.5,35 L43.5,36 C43.5,36.2761424 43.7238576,36.5 44,36.5 Z" id="Shape"/><path d="M49,42.5 C48.7238576,42.5 48.5,42.7238576 48.5,43 L48.5,48 C48.5,48.2761424 48.7238576,48.5 49,48.5 C49.2761424,48.5 49.5,48.2761424 49.5,48 L49.5,43 C49.5,42.7238576 49.2761424,42.5 49,42.5 Z" id="Shape"/><path d="M49,37.5 C48.7238576,37.5 48.5,37.7238576 48.5,38 L48.5,39 C48.5,39.2761424 48.7238576,39.5 49,39.5 C49.2761424,39.5 49.5,39.2761424 49.5,39 L49.5,38 C49.5,37.7238576 49.2761424,37.5 49,37.5 Z" id="Shape"/></g></g></g></g></svg>