<svg xmlns="http://www.w3.org/2000/svg" viewBox="0 0 826 826" width="826.000000pt" height="826.000000pt"><g transform="matrix(0 1 -1 0 826 -0)"><g transform="translate(0.000000,826.000000) scale(0.100000,-0.100000)" fill="#000000" stroke="none">
<path d="M4078 7188 c-113 -229 -209 -557 -268 -913 -11 -66 -20 -123 -20 -127 0 -5 153 -8 341 -8 l340 0 -6 48 c-38 267 -117 588 -202 817 -33 90 -122 275 -132 275 -4 0 -28 -42 -53 -92z"/>
<path d="M3772 5988 c-29 -278 -34 -483 -29 -988 12 -1037 80 -1895 188 -2382 l22 -98 177 0 177 0 21 93 c114 500 192 1559 192 2597 -1 381 -6 522 -31 773 l-12 117 -347 0 -347 0 -11 -112z"/>
<path d="M3648 4405 c-196 -614 -323 -1167 -385 -1675 -19 -159 -25 -684 -10 -814 l9 -69 67 139 c129 264 303 485 477 600 l81 54 -13 62 c-58 277 -119 884 -144 1428 -7 135 -15 292 -18 350 l-7 105 -57 -180z"/>
<path d="M4551 4545 c-2 -101 -23 -502 -36 -710 -28 -419 -65 -776 -110 -1033 -14 -79 -25 -148 -25 -155 0 -7 34 -35 76 -62 98 -64 251 -223 332 -345 35 -52 97 -161 137 -242 l73 -147 7 52 c28 202 20 599 -19 907 -62 488 -232 1197 -405 1690 -28 79 -30 82 -30 45z"/>
<path d="M3960 2428 c0 -79 32 -1133 34 -1135 2 -3 9 241 29 1092 l2 70 -32 3 c-31 3 -33 1 -33 -30z"/>
<path d="M4073 2288 c3 -95 12 -402 19 -683 7 -294 15 -487 19 -455 4 30 12 278 18 550 6 272 14 555 18 628 l6 132 -43 0 -43 0 6 -172z"/>
<path d="M4187 2453 c-2 -5 -1 -107 2 -228 5 -188 6 -207 12 -130 11 140 10 365 0 365 -6 0 -12 -3 -14 -7z"/>
<path d="M4247 2453 c-3 -4 0 -206 6 -448 6 -242 14 -422 18 -400 5 31 24 680 24 825 0 18 -6 26 -22 28 -11 2 -23 -1 -26 -5z"/>
</g></g></svg>