<svg width="96" xmlns="http://www.w3.org/2000/svg" height="96" viewBox="0 0 96 96" xmlns:xlink="http://www.w3.org/1999/xlink">
<path d="m92.901,35.568c-.537-11.682-5.214-23.337-14.304-32.259-9.105-8.934-21.003-13.527-32.925-14.04l-.657-6.639c13.791,.825 27.216,6.183 37.785,16.551 10.59,10.395 16.113,23.547 16.938,37.11l-6.837-.723zm-8.976,1.434l-6.582-.909c.108-8.106-2.922-16.314-9.225-22.5-6.18-6.063-14.337-9.042-22.437-9.06l-1.188-6.513c10.032,.243 20.055,4.056 27.711,11.565 7.788,7.656 11.61,17.391 11.721,27.417zm-15.879-.39l-5.841-1.617c.687-4.134-1.518-7.746-4.767-10.938-2.949-2.895-6.912-4.194-10.767-3.906l-2.259-6.48c6.162-.399 12.456,1.713 17.166,6.336 4.644,4.56 6.801,10.638 6.468,16.605zm-12.378-3.585c0,4.203-3.471,7.611-7.755,7.611-1.479,0-2.847-.429-4.023-1.134l-3.333,3.276 24.12,23.418c-.591,.696-1.209,1.395-1.923,2.094-13.524,13.272-35.451,13.272-48.978,0-13.527-13.278-13.527-34.797 0-48.069 .618-.612 1.236-1.125 1.854-1.644l22.719,22.059 3.261-3.201c-.909-1.245-1.455-2.76-1.455-4.41 0-4.203 3.474-7.611 7.758-7.611s7.755,3.405 7.755,7.611zm-29.598,45.417c-.285,0 7.881,17.556 7.881,17.556h-33.951l11.712-27.123c0,0 3.555,5.181 14.358,9.567z"/>
</svg>
